# xmcd
#
# Track frame offsets: 
#        150
#        14557
#        31729
#        40726
#        50189
#        66550
#        81458
#        96902
#        106463
#        122853
#        136760
#        153093
#        166563
#        177516
#        192956
#        201580
#        212164
#        222190
#        237812
#        251860
#        262788
#        278733
#        293720
#        306451
#        323861
#        335719
#
# Disc length: 4615 seconds
#
# Revision: 0
# Processed by: cddbd v1.5.2PL0 Copyright (c) Steve Scherf et al.
# Submitted via: ExactAudioCopy v0.99pb4
#
DISCID=8e12051a
DTITLE=Joachim Sander - Back To The Shadows
DYEAR=2013
DGENRE=Instrumental
TTITLE0=Touch Of Romance
TTITLE1=Wonderful Strat
TTITLE2=Shadoogie
TTITLE3=Shadows - Walk
TTITLE4=1000 Chords
TTITLE5=Kleine Geisha
TTITLE6=Moonlight
TTITLE7=Rock'n Roll Lady
TTITLE8=For You My Lovely
TTITLE9=Himmelsstürmer
TTITLE10=Tribute To The Shadows
TTITLE11=Apache
TTITLE12=Quartermasters Stores
TTITLE13=Unchained Melody
TTITLE14=This Old House
TTITLE15=Back To The Shadows
TTITLE16=Fireball
TTITLE17=Never Say Goodbye
TTITLE18=Guitar Emotions
TTITLE19=Country Gentleman Guitar
TTITLE20=Relax
TTITLE21=Dreaming
TTITLE22=Young Stars
TTITLE23=Spanish Fever
TTITLE24=In A Free Land
TTITLE25=Back To The Shadows
EXTD=
EXTT0=
EXTT1=
EXTT2=
EXTT3=
EXTT4=
EXTT5=
EXTT6=
EXTT7=
EXTT8=
EXTT9=
EXTT10=
EXTT11=
EXTT12=
EXTT13=
EXTT14=
EXTT15=
EXTT16=
EXTT17=
EXTT18=
EXTT19=
EXTT20=
EXTT21=
EXTT22=
EXTT23=
EXTT24=
EXTT25=
PLAYORDER=
